<svg xmlns="http://www.w3.org/2000/svg" style="display:none"><symbol id="icon-elements" viewbox="0 0 76 88"><title>Page 1</title><path d="M0 62.301c0 1.012.512 1.953 1.36 2.508L36 87.508c1 .656 2.293.656 3.29 0l34.64-22.7a2.998 2.998 0 0 0 0-5l-9.847-6.429 9.851-6.45h-.004a2.998 2.998 0 0 0 0-5l-9.847-6.55 9.851-6.45h-.004a2.998 2.998 0 0 0 0-5L39.282 1.25a2.994 2.994 0 0 0-3.289 0l-34.64 22.7a2.998 2.998 0 0 0 0 5l9.847 6.43-9.852 6.449h.004a2.998 2.998 0 0 0 0 5l9.848 6.55-9.852 6.45h.004A3 3 0 0 0 .001 62.3H0zm8.469-35.852L37.64 7.379l29.172 19.078L37.64 45.559 8.469 26.449zm0 17.922L16.64 39 36 51.66c1 .652 2.293.652 3.289 0L58.64 39l8.172 5.379L37.64 63.488 8.469 44.37zM16.64 56.93L36 69.578c1 .656 2.293.656 3.289 0L58.64 56.93l8.21 5.379-29.21 19.07L8.469 62.3l8.172-5.371z" fill="#000" fill-rule="evenodd"/></symbol></svg>