<svg xmlns="http://www.w3.org/2000/svg" viewBox="0 0 15 15">
  <path d="M12.2,14.2 L2,14.2 C0.9,14.2 0,13.3 0,12.2 L0,9.3 C0,9 0.3,8.7 0.6,8.7 C0.9,8.7 1.2,9 1.2,9.3 L1.2,12.2 C1.2,12.6 1.6,13 2,13 L12.1,13 C12.6,13 12.9,12.6 12.9,12.2 L12.9,9.3 C12.9,9 13.2,8.7 13.5,8.7 C13.8,8.7 14.1,9 14.1,9.3 L14.1,12.2 C14.2,13.3 13.3,14.2 12.2,14.2 Z M7.1,0 C6.8,0 6.5,0.3 6.5,0.6 L6.5,7.9 L3.9,5.3 C3.7,5.1 3.3,5.1 3.1,5.3 C2.9,5.5 2.8,5.9 3.1,6.1 L6.7,9.7 C6.8,9.8 6.9,9.9 7.1,9.9 C7.3,9.9 7.4,9.8 7.5,9.7 L11.1,6.1 C11.3,5.9 11.3,5.5 11.1,5.3 C10.9,5.1 10.5,5.1 10.3,5.3 L7.7,7.9 L7.7,0.7 C7.7,0.3 7.4,1.77635684e-15 7.1,1.77635684e-15 Z" id="Shape"></path>
</svg>
